<?xml version="1.0" encoding="UTF-8"?>
<svg width="836px" height="477px" viewBox="0 0 836 477" version="1.1" xmlns="http://www.w3.org/2000/svg" xmlns:xlink="http://www.w3.org/1999/xlink">
    <g id="UI-/-Cards_2_" stroke="none" stroke-width="1" fill="none" fill-rule="evenodd">
        <g id="undraw_message_sent_1030-(1)" transform="translate(68.000000, 27.000000)" fill-rule="nonzero">
            <path d="M476.666174,240.926144 L482.680671,239.89183 C483.233728,239.822876 483.855917,239.684967 484.408974,239.547059 C461.249704,225.204575 454.129093,194.864706 468.50858,171.833987 C478.532742,155.698693 496.991026,146.803595 515.864103,148.872222 L507.983037,167.558824 L526.648718,151.285621 C526.71785,151.285621 526.71785,151.285621 526.786982,151.354575 C552.504142,160.387582 565.984911,188.451961 556.9286,214.102941 C556.9286,214.102941 556.9286,214.102941 556.9286,214.102941 C556.582939,214.999346 556.237278,215.826797 555.891617,216.723203 C561.145661,214.102941 566.192308,211 570.340237,207.069608 C578.705227,199.070915 583.267949,188.10719 588.383728,174.523203 C598.477022,147.631046 608.224655,120.394118 617.626627,93.0882353 C596.333925,81.5728758 586.51716,56.3356209 594.605621,33.5117647 C595.089546,32.0637255 595.711736,30.7535948 596.333925,29.3745098 C596.472189,29.0297386 596.610454,28.6849673 596.81785,28.3401961 C597.440039,27.0300654 598.131361,25.7888889 598.822682,24.5477124 C598.960947,24.3408497 599.099211,24.1339869 599.168343,23.9960784 C599.790533,22.9617647 600.481854,21.9964052 601.173176,21.0310458 C601.449704,20.6862745 601.726233,20.3415033 601.933629,19.9277778 C602.694083,18.8934641 603.523669,17.8591503 604.422387,16.8937908 C604.698915,16.5490196 605.044576,16.2732026 605.321105,15.9284314 C606.012426,15.2388889 606.703748,14.5493464 607.395069,13.8598039 C607.74073,13.5150327 608.155523,13.1702614 608.501183,12.8254902 C608.570316,12.7565359 608.70858,12.6186275 608.777712,12.5496732 C608.777712,12.5496732 608.777712,12.5496732 608.777712,12.5496732 C626.682939,-3.03398693 653.229684,-3.65457516 671.826233,11.1705882 L661.594675,35.5114379 L680.052959,19.445098 C693.326331,36.2699346 694.017653,59.7833333 681.850394,77.3666667 C681.850394,77.3666667 681.919527,77.3666667 681.919527,77.3666667 C681.71213,77.6424837 681.504734,77.9183007 681.297337,78.1941176 C680.882544,78.7457516 680.536884,79.2973856 680.122091,79.7800654 C679.569034,80.4696078 679.085108,81.0901961 678.532051,81.7107843 C678.117258,82.1934641 677.702465,82.6761438 677.287673,83.1588235 C676.665483,83.848366 675.974162,84.4689542 675.28284,85.1584967 C674.868047,85.503268 674.522387,85.9169935 674.107594,86.2617647 C673.070611,87.2271242 671.964497,88.1235294 670.78925,88.9509804 C670.374458,89.2267974 669.959665,89.5026144 669.544872,89.7784314 C668.715286,90.3300654 667.954832,90.8816993 667.125247,91.3643791 C666.641321,91.7091503 666.088264,91.9849673 665.535207,92.2607843 C664.774753,92.6745098 664.0143,93.0882353 663.253846,93.5019608 C662.700789,93.7777778 662.147732,94.0535948 661.594675,94.3294118 C660.765089,94.674183 660.004635,95.0189542 659.175049,95.3637255 C658.621992,95.5705882 658.068935,95.777451 657.515878,95.9843137 C656.61716,96.329085 655.64931,96.604902 654.750592,96.880719 C654.266667,97.0186275 653.782742,97.1565359 653.367949,97.2944444 C651.985306,97.6392157 650.533531,97.9839869 649.081755,98.1908497 C648.805227,98.2598039 648.528698,98.2598039 648.25217,98.2598039 C647.076923,98.4666667 645.832544,98.6045752 644.657298,98.6735294 C644.104241,98.7424837 643.620316,98.7424837 643.067258,98.7424837 C642.099408,98.8114379 641.131558,98.8114379 640.163708,98.8114379 C639.610651,98.8114379 638.988462,98.7424837 638.435404,98.7424837 C637.467554,98.6735294 636.499704,98.6045752 635.531854,98.4666667 C634.978797,98.3977124 634.42574,98.3287582 633.80355,98.2598039 C632.766568,98.1218954 631.729586,97.9150327 630.692604,97.7081699 C630.623471,97.7081699 630.554339,97.7081699 630.485207,97.6392157 C626.544675,109.154575 622.53501,120.669935 618.456213,132.11634 C638.711933,113.981373 669.890533,115.636275 688.072288,135.770915 C688.694477,136.460458 689.316667,137.218954 689.938856,137.977451 L672.863215,156.801961 L695.953353,147.631046 C701.553057,159.353268 702.244379,172.799346 697.958185,185.073203 C696.437278,189.348366 694.363314,193.416667 691.66716,197.140196 C675.974162,219.343464 645.210355,224.583987 622.949803,208.931373 C611.819527,201.070588 604.491519,189.003595 602.555819,175.626471 C602.141026,176.798693 601.726233,177.970915 601.242308,179.074183 C596.748718,191.003268 591.149014,205.897386 579.880473,216.654248 C572.275937,223.963399 562.873964,228.583333 553.817653,232.513725 C547.94142,235.065033 541.996055,237.409477 535.981558,239.547059 C529.27574,243.615359 521.740335,246.028758 513.928402,246.580392 C504.457298,249.200654 494.778797,251.40719 485.100296,253.131046 L479.016667,254.165359 C473.555227,255.061765 468.024655,256.027124 462.424951,257.130392 C463.254536,257.337255 464.01499,257.613072 464.844576,257.888889 C485.100296,264.991176 498.442801,284.36732 497.751479,305.743137 L459.728797,317.672222 L494.087475,323.119608 C483.786785,348.287908 455.027811,360.423856 429.794576,350.149673 C422.950493,347.391503 416.866864,343.11634 411.889349,337.668954 C412.23501,338.841176 412.580671,340.013399 412.926331,341.185621 C413.617653,343.461111 414.308974,345.805556 415.000296,348.081046 C424.056607,379.041503 420.116075,403.451307 404.008284,416.690523 L395.297633,406.140523 C410.990631,393.246078 406.082249,366.629739 401.796055,351.873529 C401.173866,349.666993 400.482544,347.391503 399.791223,345.116013 C393.91499,325.601961 387.209172,303.467647 395.85069,283.195098 C408.916667,252.510458 446.455424,246.097712 476.666174,240.926144 Z" id="Path" fill="#F2F2F2"></path>
            <path d="M465.535897,420.620915 L199.446252,420.620915 C181.264497,420.620915 166.539349,405.93366 166.539349,387.798693 L166.539349,387.798693 L166.539349,266.232353 C166.539349,262.646732 167.991124,259.267974 170.618146,256.785621 L311.5786,123.497059 C323.261933,112.464379 341.651085,112.464379 353.334418,123.497059 L487.727318,250.579739 C494.502268,256.992484 498.373911,265.887582 498.373911,275.265359 L498.373911,387.798693 C498.442801,405.93366 483.717653,420.620915 465.535897,420.620915 L465.535897,420.620915 Z" id="Path" fill="#3F3D56"></path>
            <g id="Group" opacity="0.1" transform="translate(166.608481, 268.232026)" fill="#000000">
                <path d="M0,0 L329.069034,0 L329.069034,0 L329.069034,132.59902 C329.069034,143.562745 320.150986,152.388889 309.228107,152.388889 C309.228107,152.388889 309.228107,152.388889 309.228107,152.388889 L19.840927,152.388889 C8.84891519,152.388889 0,143.493791 0,132.59902 L0,132.59902 L0,0 L0,0 L0,0 Z" id="Path"></path>
            </g>
            <path d="M227.859566,163.76634 L436.36213,163.76634 C446.386292,163.76634 454.474753,171.833987 454.474753,181.832353 L454.474753,389.798366 C454.474753,399.796732 446.386292,407.864379 436.36213,407.864379 L227.859566,407.864379 C217.835404,407.864379 209.746943,399.796732 209.746943,389.798366 L209.746943,181.832353 C209.816075,171.833987 217.904536,163.76634 227.859566,163.76634 Z" id="Path" fill="#A7ADFF"></path>
            <g id="Group" opacity="0.1" transform="translate(209.470414, 273.058824)" fill="#000000">
                <polygon id="Path" points="245.073471 0.620588235 245.073471 134.805556 0.34566075 134.805556 0.34566075 0.620588235 122.709566 59.6454248"></polygon>
            </g>
            <path d="M332.17998,340.289216 L175.388264,264.715359 C172.208185,263.198366 168.405917,264.508497 166.88501,267.680392 C166.470217,268.507843 166.262821,269.473203 166.262821,270.438562 L166.262821,400.486275 C166.262821,411.45 175.180868,420.276144 186.103748,420.276144 L186.103748,420.276144 L478.187081,420.276144 C489.179093,420.276144 498.028008,411.381046 498.028008,400.486275 C498.028008,400.486275 498.028008,400.486275 498.028008,400.486275 L498.028008,272.645098 C498.028008,268.369935 494.5714,264.922222 490.285207,264.922222 C489.109961,264.922222 487.934714,265.198039 486.897732,265.680719 L332.17998,340.289216 Z" id="Path" fill="#3F3D56"></path>
            <rect id="Rectangle" fill="#F2F2F2" x="230.901381" y="186.176471" width="68.4408284" height="9.65359477"></rect>
            <rect id="Rectangle" fill="#F2F2F2" x="225.370809" y="221.343137" width="203.248521" height="5.51633987"></rect>
            <rect id="Rectangle" fill="#F2F2F2" x="225.370809" y="239.960784" width="203.248521" height="5.51633987"></rect>
            <rect id="Rectangle" fill="#F2F2F2" x="225.370809" y="258.578431" width="203.248521" height="5.51633987"></rect>
            <rect id="Rectangle" fill="#3F3D56" x="42.1706114" y="419.931373" width="569.648915" height="1"></rect>
            <path d="M0,335.393464 C0,376.007516 25.5788955,408.898693 57.172288,408.898693" id="Path" fill="#46455B"></path>
            <path d="M57.172288,408.898693 C57.172288,367.801961 85.7238659,334.497059 120.981262,334.497059" id="Path" fill="#A7ADFF"></path>
            <path d="M20.739645,339.048039 C20.739645,377.662418 37.0548323,408.898693 57.172288,408.898693" id="Path" fill="#A7ADFF"></path>
            <path d="M57.172288,408.898693 C57.172288,356.355556 90.1483235,313.879739 130.936292,313.879739" id="Path" fill="#46455B"></path>
            <path d="M45.1432939,409.450327 C45.1432939,409.450327 53.2317554,409.17451 55.7205128,407.450654 C58.2092702,405.726797 68.1642998,403.65817 68.7864892,406.41634 C69.4086785,409.17451 80.9537475,420.276144 71.8283037,420.345098 C62.70286,420.414052 50.5356016,418.897059 48.1159763,417.44902 C45.6963511,416.00098 45.1432939,409.450327 45.1432939,409.450327 Z" id="Path" fill="#A8A8A8"></path>
            <g id="Group" opacity="0.2" transform="translate(44.935897, 408.898693)" fill="#000000">
                <path d="M27.0306706,10.4810458 C17.9052268,10.55 5.73796844,9.03300654 3.3183432,7.58496732 C1.45177515,6.48169935 0.691321499,2.41339869 0.483925049,0.551633987 C0.34566075,0.551633987 0.20739645,0.551633987 0.20739645,0.551633987 C0.20739645,0.551633987 0.691321499,7.10228758 3.1800789,8.5503268 C5.66883629,9.99836601 17.7669625,11.5153595 26.8924063,11.4464052 C29.519428,11.4464052 30.418146,10.4810458 30.418146,9.10196078 C30.0033531,9.92941176 28.9663708,10.4810458 27.0306706,10.4810458 Z" id="Path"></path>
            </g>
            <path d="M497.544083,112.947059 C497.12929,116.670588 494.294872,119.635621 493.25789,123.152288 C491.66785,128.530719 494.433136,134.253922 498.09714,138.460131 C504.180769,145.217647 512.684024,149.216993 521.740335,149.699673 C523.053846,149.837582 524.367357,149.699673 525.680868,149.285948 C526.786982,148.803268 527.823964,148.113725 528.65355,147.286275 C531.487968,144.45915 532.939744,140.597712 533.561933,136.66732 C534.184122,132.736928 533.907594,128.737582 533.700197,124.80719 C533.700197,123.979739 533.561933,123.152288 533.285404,122.393791 C532.870611,121.635294 532.386686,121.014706 531.764497,120.532026 C529.759665,118.670261 527.547436,117.084314 525.127811,115.705229 C524.021696,115.222549 523.122978,114.464052 522.362525,113.567647 C521.8786,112.80915 521.602071,111.912745 521.532939,111.01634 L520.772485,107.29281 C520.634221,106.189542 520.28856,105.155229 519.666371,104.258824 C518.35286,102.534967 515.864103,102.25915 513.721006,102.190196 L505.770809,101.845425 C503.282051,101.776471 500.03284,101.017974 497.613215,101.500654 C495.331854,101.983333 496.092308,104.051961 496.507101,105.913725 C497.12929,108.25817 497.474951,110.602614 497.544083,112.947059 Z" id="Path" fill="#A0616A"></path>
            <g id="Group" opacity="0.1" transform="translate(492.220907, 100.673203)" fill="#000000">
                <path d="M5.32317554,12.2738562 C4.90838264,15.9973856 2.0739645,18.9624183 1.03698225,22.479085 C-0.553057199,27.8575163 2.2122288,33.580719 5.87623274,37.7869281 C11.9598619,44.5444444 20.4631164,48.5437908 29.519428,49.0264706 C30.8329389,49.1643791 32.1464497,49.0264706 33.4599606,48.6127451 C34.566075,48.1300654 35.6030572,47.4405229 36.432643,46.6130719 C39.2670611,43.7859477 40.7188363,39.9245098 41.3410256,35.9941176 C41.963215,32.0637255 41.6866864,28.0643791 41.4792899,24.1339869 C41.4792899,23.3065359 41.3410256,22.479085 41.064497,21.7205882 C40.6497041,20.9620915 40.1657791,20.3415033 39.5435897,19.8588235 C37.5387574,17.9970588 35.3265286,16.4111111 32.9069034,15.0320261 C31.800789,14.5493464 30.902071,13.7908497 30.1416174,12.8944444 C29.6576923,12.1359477 29.3811637,11.2395425 29.3120316,10.3431373 L28.5515779,6.61960784 C28.4133136,5.51633987 28.0676529,4.48202614 27.4454635,3.58562092 C26.1319527,1.86176471 23.6431953,1.58594771 21.5000986,1.51699346 L13.5499014,1.17222222 C11.061144,1.10326797 7.81193294,0.344771242 5.39230769,0.82745098 C3.11094675,1.31013072 3.87140039,3.37875817 4.28619329,5.24052288 C4.90838264,7.58496732 5.25404339,9.92941176 5.32317554,12.2738562 Z" id="Path"></path>
            </g>
            <path d="M548.148817,279.126797 C547.042702,291.469608 545.867456,303.743464 544.761341,316.086275 C543.862623,325.808824 542.963905,335.531373 541.235602,345.116013 C540.613412,348.425817 539.922091,351.666667 539.092505,354.976471 C536.811144,364.009477 533.423669,372.835621 532.317554,382.07549 C532.317554,382.351307 532.248422,382.627124 532.248422,382.902941 C532.110158,384.971569 531.764497,386.971242 531.073176,388.901961 C530.520118,390.281046 529.690533,391.591176 529.137475,392.970261 C527.962229,395.797386 527.823964,398.831373 527.6857,401.865359 C523.606903,399.589869 519.113314,398.003922 514.412327,397.314379 C512.130966,396.969608 509.642209,396.762745 508.121302,395.038889 C506.392998,393.177124 506.600394,390.35 506.876923,387.867647 C507.775641,380.144771 508.674359,372.421895 509.573077,364.69902 C509.849606,361.389216 510.402663,358.079412 511.232249,354.838562 C511.508777,353.735294 511.92357,352.70098 512.269231,351.666667 C512.753156,350.218627 513.306213,348.770588 513.721006,347.253595 C514.274063,344.840196 514.688856,342.426797 514.896252,339.944444 C515.79497,332.152614 516.901085,324.429739 517.868935,316.637908 L517.938067,316.224183 C519.389842,304.433007 520.495957,292.64183 520.150296,280.781699 C520.081164,279.057843 520.012032,277.265033 519.942899,275.541176 C519.804635,272.989869 519.528107,271.610784 521.671203,270.024837 C524.021696,268.232026 527.063511,267.059804 529.759665,265.887582 C531.21144,265.266993 547.042702,259.681699 547.457495,260.853922 C548.217949,263.474183 548.563609,266.163399 548.632742,268.921569 C548.701874,272.438235 548.494477,275.816993 548.148817,279.126797 Z" id="Path" fill="#605D82"></path>
            <g id="Group" opacity="0.1" transform="translate(512.269231, 315.810458)" fill="#000000">
                <path d="M28.9663708,29.2366013 C28.3441815,32.5464052 27.65286,35.7872549 26.8232742,39.0970588 C24.5419132,48.1300654 21.1544379,56.9562092 20.0483235,66.1960784 C20.0483235,66.4718954 19.9791913,66.7477124 19.9791913,67.0235294 C12.927712,56.9562092 6.98234714,46.1303922 0.0691321499,35.9251634 C0.553057199,34.4771242 1.1061144,33.029085 1.5209073,31.5120915 C2.0739645,29.0986928 2.4887574,26.6852941 2.69615385,24.2029412 C3.59487179,16.4111111 4.70098619,8.68823529 5.66883629,0.896405229 L5.73796844,0.482679739 C6.15276134,2.1375817 6.70581854,3.72352941 7.46627219,5.24052288 C12.0981262,14.6183007 23.0901381,19.3761438 28.4824458,28.3401961 C28.6898422,28.6849673 28.8281065,28.9607843 28.9663708,29.2366013 Z" id="Path"></path>
            </g>
            <path d="M483.925049,262.508824 C484.132446,270.024837 485.376824,277.471895 486.552071,284.918954 L489.040828,300.295752 C490.423471,308.70817 491.806114,317.258497 495.815779,324.77451 C498.788462,330.428758 503.074655,335.186601 506.946055,340.220261 C516.486292,352.632026 523.676036,366.698693 532.732347,379.455229 C535.359369,383.178758 539.161637,387.178105 543.586095,386.419608 C546.558777,385.936928 548.701874,383.454575 550.983235,381.59281 C553.748521,379.386275 556.997732,377.731373 559.140828,374.973203 C561.283925,372.215033 561.698718,367.526144 558.795168,365.526471 C557.758185,364.974837 556.652071,364.492157 555.476824,364.147386 C550.983235,362.423529 548.010552,358.010458 546.213116,353.597386 C544.41568,349.184314 543.240434,344.357516 540.751677,340.220261 C535.359369,331.256209 524.367357,326.498366 519.735503,317.120588 C517.108481,311.880065 516.901085,305.812092 516.693688,299.95098 L516.209763,284.987908 C516.140631,283.333007 516.140631,281.678105 516.762821,280.161111 C518.560256,276.161765 523.883432,275.816993 528.238757,275.334314 C533.14714,274.78268 537.917258,273.265686 542.272584,270.921242 C544.761341,269.611111 547.180966,267.887255 548.563609,265.335948 C549.807988,263.060458 549.946252,260.371242 550.084517,257.819935 L551.605424,230.720915 C551.743688,228.376471 551.881953,225.963072 551.052367,223.82549 C548.978402,218.30915 542.065187,216.585294 536.188955,216.792157 C525.266075,217.274837 515.172781,221.963725 504.872091,225.135621 C502.314201,225.963072 499.756312,226.58366 497.12929,227.135294 C494.847929,227.617974 492.013511,227.411111 489.801282,228.169608 C485.86075,229.479739 485.999014,238.030065 485.445957,241.546732 C484.27071,248.511111 483.717653,255.544444 483.925049,262.508824 Z" id="Path" fill="#605D82"></path>
            <path d="M542.13432,387.59183 C543.10217,388.55719 543.378698,390.005229 543.655227,391.315359 C545.03787,398.762418 545.798323,406.278431 545.798323,413.863399 C545.729191,414.552941 545.867456,415.311438 546.213116,415.932026 C546.489645,416.276797 546.835306,416.621569 547.250099,416.759477 C550.015385,418.069608 553.264596,416.207843 555.545957,414.20817 C559.83215,410.484641 563.496154,405.382026 563.70355,399.727778 C563.634418,398.279739 563.70355,396.762745 563.841815,395.314706 C564.187475,393.177124 565.500986,391.315359 566.607101,389.453595 C568.473669,386.281699 569.994576,382.833987 571.10069,379.31732 C571.515483,378.00719 571.792012,376.352288 570.75503,375.386928 C570.409369,375.111111 569.994576,374.904248 569.510651,374.76634 L556.9286,370.146405 C555.822485,369.73268 553.126331,376.697059 552.711538,377.455556 C551.674556,379.31732 550.637574,380.351634 548.494477,380.765359 C546.351381,381.179085 543.793491,380.558497 541.788659,381.661765 C538.539448,383.454575 540.198619,385.661111 542.13432,387.59183 Z" id="Path" fill="#535070"></path>
            <path d="M522.777318,391.866993 C522.569921,391.384314 522.22426,390.970588 521.809467,390.625817 C521.25641,390.281046 520.565089,390.005229 519.873767,390.005229 C517.454142,389.591503 514.619724,389.315686 512.960552,391.108497 C511.439645,392.763399 511.647041,395.452614 510.402663,397.314379 C509.98787,397.934967 509.434813,398.417647 509.089152,399.038235 C508.674359,400.003595 508.466963,401.037908 508.536095,402.072222 C508.466963,404.968301 508.39783,407.864379 508.605227,410.760458 C508.743491,413.173856 509.158284,415.725163 510.679191,417.586928 C513.098817,420.620915 517.523274,421.034641 521.394675,421.241503 L524.574753,421.379412 C525.473471,421.51732 526.303057,421.379412 527.132643,421.172549 C528.169625,420.689869 528.999211,419.793464 529.344872,418.690196 C531.004043,414.621895 528.377022,410.208824 526.786982,406.140523 C524.989546,401.520588 525.266075,396.34902 522.777318,391.866993 Z" id="Path" fill="#535070"></path>
            <path d="M496.645365,92.1228758 C496.576233,91.7091503 496.645365,91.2954248 496.852761,90.8816993 C497.336686,90.0542484 498.511933,90.2611111 499.410651,90.5369281 C503.074655,91.4333333 506.946055,90.6058824 510.679191,90.8127451 C514.412327,91.0196078 518.698521,92.8813725 519.458974,96.604902 C522.22426,94.674183 524.574753,92.2607843 526.441321,89.5026144 C527.478304,87.9166667 528.377022,86.1238562 528.238757,84.2620915 C528.031361,81.5728758 525.75,79.5732026 523.676036,77.8493464 L517.38501,72.746732 C516.555424,71.9882353 515.587574,71.3676471 514.550592,70.9539216 C513.098817,70.4712418 511.508777,70.6781046 509.98787,70.6781046 C505.425148,70.6781046 500.585897,68.6094771 496.507101,70.6781046 C494.778797,71.5745098 493.534418,73.022549 492.290039,74.4705882 L486.690335,81.0901961 C486.275542,81.5039216 485.929882,82.0555556 485.791617,82.6071895 C485.653353,83.4346405 486.068146,84.1931373 486.20641,85.0205882 C486.482939,86.4686275 485.86075,88.0545752 486.344675,89.5026144 C487.17426,91.8470588 490.008679,92.1918301 491.806114,93.570915 C492.428304,94.0535948 493.465286,95.777451 494.294872,95.777451 C495.608383,95.7084967 496.576233,93.2261438 496.645365,92.1228758 Z" id="Path" fill="#3F3D56"></path>
            <ellipse id="Oval" fill="#A0616A" cx="506.116469" cy="93.7088235" rx="17.9052268" ry="17.8591503"></ellipse>
            <path d="M510.333531,132.874837 C509.089152,129.289216 505.632544,126.944771 501.899408,127.08268 C501.346351,127.151634 500.793294,127.08268 500.309369,126.875817 C500.03284,126.668954 499.825444,126.393137 499.687179,126.048366 C498.581065,124.117647 497.751479,122.04902 497.060158,119.911438 C496.783629,118.946078 496.368836,117.84281 495.400986,117.635948 C494.5714,117.498039 493.810947,117.911765 493.327022,118.532353 C492.843097,119.152941 492.359172,119.842484 491.806114,120.394118 C489.524753,122.393791 485.584221,120.60098 483.164596,122.393791 C482.749803,122.669608 482.473274,123.083333 482.058481,123.35915 C481.643688,123.634967 481.228895,123.772876 480.74497,123.910784 C476.113116,125.427778 471.619527,127.151634 467.195069,129.220261 C468.785108,138.804902 470.44428,148.527451 474.177416,157.491503 C475.974852,161.766667 477.979684,165.903922 479.362327,170.316993 C482.542406,180.039542 482.680671,190.451634 482.680671,200.656863 C482.680671,207.621242 482.680671,214.792484 480.39931,221.412092 C479.77712,222.860131 479.362327,224.377124 479.085799,225.963072 C478.947535,227.54902 479.43146,229.272876 480.675838,230.238235 C481.436292,230.720915 482.265878,230.996732 483.164596,231.134641 C487.105128,231.686275 491.045661,230.651961 494.917061,229.755556 C505.286884,227.342157 515.864103,225.963072 526.441321,224.652941 L544.139152,222.377451 C545.383531,222.308497 546.627909,221.963725 547.803156,221.412092 C551.052367,219.619281 551.328895,214.792484 549.324063,211.689542 C548.356213,210.241503 546.97357,209.000327 546.213116,207.414379 C545.452663,205.828431 545.314398,203.621895 546.697041,202.587582 C549.53146,200.381046 548.701874,196.243791 548.840138,192.65817 C549.185799,182.59085 549.185799,172.592484 548.701874,162.525163 C548.563609,160.456536 548.494477,158.387908 548.632742,156.250327 C548.978402,152.73366 549.600592,149.216993 550.568442,145.838235 L555.96075,124.738235 C554.578107,122.531699 551.881953,121.152614 549.324063,120.463072 C546.766174,119.773529 544.139152,119.635621 541.581262,118.877124 C536.465483,117.291176 531.833629,113.222876 526.510454,113.636601 C526.095661,113.636601 525.680868,113.77451 525.335207,113.912418 C524.090828,114.601961 524.298225,116.325817 524.229093,117.704902 C524.090828,120.738889 521.809467,123.35915 519.32071,125.151961 C516.831953,126.944771 513.997535,128.254902 511.647041,130.323529 C510.886588,130.875163 510.402663,131.840523 510.333531,132.874837 Z" id="Path" fill="#3F3D56"></path>
            <path d="M439.334813,152.871569 C438.159566,153.630065 436.915187,154.319608 435.532544,154.802288 C434.219034,155.216013 433.043787,155.767647 431.937673,156.526144 C431.453748,156.939869 431.038955,157.491503 430.693294,158.043137 C428.826726,161.352941 430.001972,165.55915 433.320316,167.420915 C434.42643,168.041503 435.739941,168.386275 437.053452,168.31732 C438.712623,168.110458 440.302663,167.627778 441.754438,166.938235 L454.405621,161.49085 C456.548718,160.594444 458.830079,159.491176 459.867061,157.353595 C460.005325,157.146732 460.005325,156.939869 460.005325,156.733007 C459.936193,156.526144 459.728797,156.319281 459.452268,156.181373 C456.61785,154.319608 454.129093,151.975163 452.12426,149.285948 C451.571203,148.596405 450.949014,146.941503 450.257692,146.527778 C447.492406,144.94183 441.477909,151.492484 439.334813,152.871569 Z" id="Path" fill="#A0616A"></path>
            <path d="M574.488166,148.389542 L579.12002,153.69902 C580.08787,154.871242 581.124852,155.97451 582.02357,157.215686 C584.235799,160.318627 586.033235,163.697386 587.346746,167.214052 C588.383728,169.834314 589.213314,172.661438 588.867653,175.488562 C588.660256,176.936601 588.245464,178.315686 587.692406,179.694771 C586.862821,182.315033 585.756706,184.86634 584.512327,187.279739 C583.475345,189.141503 582.300099,190.934314 580.917456,192.589216 C577.322584,197.347059 573.382051,201.898039 569.095858,206.104248 C567.505819,207.690196 566.814497,210.241503 566.123176,212.379085 C564.809665,216.309477 561.76785,219.343464 558.8643,222.239542 C557.89645,223.204902 556.859467,224.101307 555.753353,224.928758 C554.094181,226.032026 552.089349,226.58366 550.084517,226.514706 C549.185799,226.514706 548.356213,226.307843 547.526627,225.963072 C545.521795,224.997712 544.484813,222.653268 544.277416,220.446732 C544.07002,218.447059 544.41568,216.378431 545.245266,214.585621 C547.94142,208.655556 554.785503,206.104248 559.624753,201.829085 C562.459172,199.277778 564.6714,196.105882 566.814497,193.002941 C568.266272,191.072222 569.510651,188.934641 570.409369,186.65915 C571.515483,183.763072 571.10069,180.384314 571.999408,177.419281 C572.414201,176.178105 573.105523,175.074837 573.520316,173.83366 C573.935108,172.592484 574.073373,171.144444 573.312919,170.110131 C572.759862,169.420588 571.999408,168.937908 571.169822,168.593137 C568.058876,167.00719 564.602268,165.007516 563.980079,161.559804 C563.772682,159.698039 564.256607,157.76732 565.362722,156.181373 C566.468836,154.664379 567.782347,153.285294 569.303254,152.113072 C570.824162,150.94085 573.105523,149.630719 574.488166,148.389542 Z" id="Path" fill="#A0616A"></path>
            <path d="M436.292998,160.318627 C435.463412,158.663725 434.42643,156.939869 432.767258,156.112418 C431.108087,155.422876 429.310651,155.422876 427.651479,156.112418 C426.06144,156.801961 424.540533,157.698366 423.15789,158.801634 L419.148225,161.766667 C418.249507,162.387255 417.419921,163.076797 416.7286,163.973203 C416.10641,165.007516 415.691617,166.179739 415.484221,167.351961 C414.792899,170.110131 414.585503,172.937255 414.862032,175.764379 C415.484221,180.315359 418.249507,184.245752 421.222189,187.693464 C423.088757,189.831046 425.43925,192.037582 428.273669,192.106536 C429.518047,192.17549 430.90069,191.69281 431.384615,190.520588 C431.592012,190.106863 431.661144,189.624183 431.661144,189.141503 C431.937673,184.107843 430.140237,179.143137 428.066272,174.592157 C427.374951,173.419935 427.02929,172.04085 426.891026,170.661765 C426.891026,170.454902 426.960158,170.179085 427.02929,169.972222 C427.236686,169.765359 427.444083,169.696405 427.720611,169.627451 C430.624162,169.075817 435.601677,171.282353 437.606509,168.110458 C439.058284,166.04183 437.260848,162.180392 436.292998,160.318627 Z" id="Path" fill="#A0616A"></path>
            <path d="M495.677515,86.4686275 C495.608383,86.054902 495.677515,85.6411765 495.884911,85.227451 C496.368836,84.4 497.544083,84.6068627 498.442801,84.8826797 C502.106805,85.779085 505.978205,84.951634 509.711341,85.1584967 C513.444477,85.3653595 517.730671,87.2271242 518.491124,90.9506536 C521.25641,89.0199346 523.606903,86.6065359 525.473471,83.848366 C526.510454,82.2624183 527.409172,80.4696078 527.270907,78.6078431 C527.063511,75.9186275 524.78215,73.9189542 522.708185,72.195098 L516.41716,67.0924837 C515.587574,66.3339869 514.619724,65.7133987 513.582742,65.2996732 C512.130966,64.8169935 510.540927,65.0238562 509.02002,65.0238562 C504.457298,65.0238562 499.618047,62.9552288 495.53925,65.0238562 C493.810947,65.9202614 492.566568,67.3683007 491.322189,68.8163399 L485.722485,75.4359477 C485.307692,75.8496732 484.962032,76.4013072 484.823767,76.9529412 C484.685503,77.7803922 485.100296,78.5388889 485.23856,79.3663399 C485.515089,80.8143791 484.892899,82.4003268 485.376824,83.848366 C486.20641,86.1928105 489.040828,86.5375817 490.838264,87.9166667 C491.460454,88.3993464 492.497436,90.1232026 493.327022,90.1232026 C494.709665,90.0542484 495.677515,87.5718954 495.677515,86.4686275 Z" id="Path" fill="#3F3D56"></path>
            <path d="M457.654832,135.495098 C456.963511,135.977778 456.272189,136.529412 455.788264,137.218954 C455.096943,138.184314 455.027811,139.494444 454.405621,140.528758 C453.230375,142.735294 450.395957,143.562745 448.598521,145.42451 C448.321992,145.700327 448.114596,145.976144 448.045464,146.389869 C448.045464,146.872549 448.183728,147.355229 448.529389,147.768954 L457.032643,161.077124 C459.867061,161.352941 462.563215,159.560131 465.397633,159.766993 C466.434615,159.835948 467.54073,160.249673 468.577712,159.904902 C469.269034,159.560131 469.960355,159.146405 470.582544,158.663725 C472.241716,157.629412 474.523077,157.491503 475.90572,156.043464 C477.288363,154.664379 477.426627,152.595752 477.426627,150.665033 C477.426627,149.010131 477.288363,147.355229 476.942702,145.700327 C475.698323,140.597712 471.757791,136.66732 469.338166,132.11634 C468.162919,129.909804 467.471598,128.599673 464.98284,130.116667 C462.355819,131.702614 460.005325,133.771242 457.654832,135.495098 Z" id="Path" fill="#3F3D56"></path>
            <path d="M560.869132,128.737582 C562.459172,129.771895 563.910947,131.013072 565.155325,132.461111 C566.468836,134.116013 567.160158,136.184641 568.404536,137.839542 C569.579783,139.494444 571.238955,140.735621 572.621598,142.321569 C574.695562,144.597059 576.078205,147.424183 577.460848,150.251307 C574.073373,154.664379 570.409369,158.801634 566.468836,162.663072 C566.054043,163.145752 565.431854,163.559477 564.809665,163.76634 C563.910947,163.835294 563.012229,163.490523 562.459172,162.80098 C561.836982,162.180392 561.422189,161.352941 560.8,160.732353 C559.417357,159.284314 557.550789,158.456863 555.615089,158.25 C553.679389,158.043137 551.674556,158.043137 549.738856,158.181046 C549.324063,158.25 548.840138,158.181046 548.494477,157.974183 C548.217949,157.76732 547.94142,157.491503 547.803156,157.215686 C545.521795,153.285294 546.213116,148.389542 547.042702,143.976471 L548.90927,133.771242 C549.185799,131.840523 549.669724,129.909804 550.430178,128.116993 C551.121499,126.6 552.711538,124.048693 554.647239,124.531373 C556.652071,124.738235 559.209961,127.565359 560.869132,128.737582 Z" id="Path" fill="#3F3D56"></path>
            <ellipse id="Oval" fill="#FFFFFF" cx="219.840237" cy="167.627778" rx="28.3441815" ry="28.3401961"></ellipse>
            <path d="M219.840237,134.460784 C201.105424,134.460784 185.965483,149.561765 185.965483,168.248366 C185.965483,186.934967 201.105424,202.035948 219.840237,202.035948 C238.575049,202.035948 253.71499,186.934967 253.71499,168.248366 C253.645858,149.630719 238.505917,134.529739 219.840237,134.460784 Z M212.85789,186.245425 L195.50572,168.937908 L200.34497,164.111111 L212.85789,176.59183 L239.266371,150.251307 L244.105621,155.078105 L212.85789,186.245425 L212.85789,186.245425 Z" id="Shape" fill="#57B894"></path>
        </g>
    </g>
</svg>
